<svg width="33" height="33" viewBox="0 0 33 33" fill="none" xmlns="http://www.w3.org/2000/svg">
<path d="M30.7321 0.275391H1.27302C0.564559 0.275391 -0.0078125 0.847762 -0.0078125 1.55622V31.0153C-0.0078125 31.7238 0.564559 32.2962 1.27302 32.2962H30.7321C31.4406 32.2962 32.013 31.7238 32.013 31.0153V1.55622C32.013 0.847762 31.4406 0.275391 30.7321 0.275391ZM27.0337 9.62146H24.4761C22.4708 9.62146 22.0825 10.5741 22.0825 11.975V15.061H26.8696L26.2452 19.8921H22.0825V32.2962H17.0913V19.8961H12.9166V15.061H17.0913V11.4987C17.0913 7.36399 19.6169 5.11053 23.3073 5.11053C25.0765 5.11053 26.5934 5.24261 27.0377 5.30265V9.62146H27.0337Z" fill="#2091F9"/>
</svg>
